HIERARCHY
ROOT Hips
{
	OFFSET 0.00 0.00 0.00
	CHANNELS 6 Xposition Yposition Zposition Xrotation Yrotation Zrotation
	JOINT Spine
	{
		OFFSET 0.00000 7.06766 0.00000
		CHANNELS 3 Xrotation Yrotation Zrotation
		JOINT Head
		{
			OFFSET 0.00000 15.03989 0.00000
			CHANNELS 3 Xrotation Yrotation Zrotation
			End Site
			{
				OFFSET 0.00000 4.52755 0.00000
			}
		}
		JOINT LeftShoulder
		{
			OFFSET 0.00000 10.53037 0.00000
			CHANNELS 3 Xrotation Yrotation Zrotation
			JOINT LeftArm
			{
				OFFSET 7.02886 0.00000 0.00000
				CHANNELS 3 Xrotation Yrotation Zrotation
				JOINT LeftForeArm
				{
					OFFSET 10.79770 0.00000 0.00000
					CHANNELS 3 Yrotation Zrotation Xrotation
					JOINT LeftHand
					{
						OFFSET 7.90744 0.00000 0.00000
						CHANNELS 3 Xrotation Yrotation Zrotation
						JOINT LeftHandThumb1
						{
							OFFSET 0.00000 0.00000 0.00000
							CHANNELS 3 Xrotation Zrotation Yrotation
							End Site
							{
								OFFSET 0.00000 0.00000 3.93700
							}
						}
						End Site
						{
							OFFSET 3.93700 0.00000 0.00000
						}
					}
				}
			}
		}
		JOINT RightShoulder
		{
			OFFSET 0.00000 10.53037 0.00000
			CHANNELS 3 Xrotation Yrotation Zrotation
			JOINT RightArm
			{
				OFFSET -7.02886 0.00000 0.00000
				CHANNELS 3 Xrotation Yrotation Zrotation
				JOINT RightForeArm
				{
					OFFSET -10.79770 0.00000 0.00000
					CHANNELS 3 Yrotation Zrotation Xrotation
					JOINT RightHand
					{
						OFFSET -7.90744 0.00000 0.00000
						CHANNELS 3 Xrotation Yrotation Zrotation
						JOINT RightHandThumb1
						{
							OFFSET 0.00000 0.00000 0.00000
							CHANNELS 3 Xrotation Zrotation Yrotation
							End Site
							{
								OFFSET 0.00000 0.00000 3.93700
							}
						}
						End Site
						{
							OFFSET -3.93700 0.00000 0.00000
						}
					}
				}
			}
		}
	}
	JOINT LeftUpLeg
	{
		OFFSET 4.01300 0.00000 0.00000
		CHANNELS 3 Xrotation Yrotation Zrotation
		JOINT LeftLeg
		{
			OFFSET 0.00000 -16.89976 0.00000
			CHANNELS 3 Xrotation Yrotation Zrotation
			JOINT LeftFoot
			{
				OFFSET 0.00000 -17.38918 0.00000
				CHANNELS 3 Xrotation Yrotation Zrotation
				JOINT LeftToeBase
				{
					OFFSET 0.00000 -1.27456 4.75673
					CHANNELS 3 Xrotation Yrotation Zrotation
					End Site
					{
						OFFSET 0.00000 0.00000 2.95275
					}
				}
			}
		}
	}
	JOINT RightUpLeg
	{
		OFFSET -4.01300 0.00000 0.00000
		CHANNELS 3 Xrotation Yrotation Zrotation
		JOINT RightLeg
		{
			OFFSET 0.00000 -16.89976 0.00000
			CHANNELS 3 Xrotation Yrotation Zrotation
			JOINT RightFoot
			{
				OFFSET 0.00000 -17.38918 0.00000
				CHANNELS 3 Xrotation Yrotation Zrotation
				JOINT RightToeBase
				{
					OFFSET 0.00000 -1.27456 4.75673
					CHANNELS 3 Xrotation Yrotation Zrotation
					End Site
					{
						OFFSET 0.00000 0.00000 2.95275
					}
				}
			}
		}
	}
}
MOTION
Frames: 16
Frame Time: 0.008333
 18.8301 35.6048 -23.6699 164.5052 -0.3879 178.3194 -33.4737 0.9314 2.1907 26.4441 -1.9032 -0.6570 -56.1295 -14.6070 34.7142 -65.9292 -28.7443 -3.2159 -123.2828 -0.0000 -9.8861 6.9878 18.8719 -20.7535 33.1476 -0.0000 26.2537 -26.2442 -8.2939 -35.6707 -78.5955 34.6038 -0.0173 140.6021 0.0000 84.3076 5.8346 -6.3879 42.5661 32.8623 0.0000 -24.3270 -3.2342 7.2562 0.5004 -7.6920 0.0000 0.0000 -18.5044 32.6693 2.2059 23.1970 0.0000 -0.0000 -4.9204 -9.4663 0.4822 -4.2146 0.0000 0.0000 -15.5571 -29.8175 5.7649 22.3297 -0.0000 0.0000
 18.8301 35.6051 -23.6691 164.5098 -0.3914 178.3179 -33.4710 0.9349 2.1920 26.4526 -1.8855 -0.6694 -56.1138 -14.5838 34.7110 -65.9695 -28.7553 -3.2350 -123.1997 -0.0000 -10.1068 6.9822 18.8050 -20.8033 33.1476 -0.0000 26.2537 -26.2283 -8.3175 -35.6622 -78.6443 34.6219 0.0248 140.5903 0.0000 84.2719 5.8630 -6.4172 42.5755 32.8623 0.0000 -24.3270 -3.2358 7.2646 0.5000 -7.6834 0.0000 -0.0000 -18.5004 32.6618 2.2114 23.1956 0.0000 -0.0000 -4.9157 -9.4619 0.4834 -4.2151 0.0000 0.0000 -15.5491 -29.8220 5.7682 22.3066 0.0000 -0.0000
 18.8301 35.6055 -23.6677 164.5136 -0.3884 178.3162 -33.4676 0.9429 2.1928 26.4679 -1.8871 -0.6646 -56.1095 -14.5836 34.7106 -65.9275 -28.7603 -3.2350 -123.2130 -0.0000 -9.9577 6.9794 18.8189 -20.7820 33.1476 -0.0000 26.2537 -26.2336 -8.3077 -35.6514 -78.6520 34.6350 0.0543 140.5749 0.0000 84.1984 5.8694 -6.4048 42.6623 32.8623 0.0000 -24.3270 -3.2343 7.2599 0.5057 -7.6790 0.0000 0.0000 -18.5014 32.6402 2.2210 23.2415 -0.0000 0.0000 -4.9209 -9.4667 0.4850 -4.2055 0.0000 0.0000 -15.5501 -29.8254 5.7403 22.3353 0.0000 -0.0000
 18.8301 35.6057 -23.6672 164.5158 -0.3931 178.3135 -33.4658 0.9481 2.1927 26.4725 -1.8965 -0.6673 -56.0966 -14.5695 34.7147 -65.9502 -28.7509 -3.2323 -123.2023 -0.0000 -10.1574 7.0146 18.8576 -20.8410 33.1476 -0.0000 26.2537 -26.2234 -8.3271 -35.6541 -78.6552 34.6435 0.0835 140.5654 0.0000 84.2347 5.9239 -6.4769 42.6094 32.8623 0.0000 -24.3270 -3.2356 7.2567 0.5086 -7.6745 -0.0000 0.0000 -18.4904 32.6361 2.2202 23.1869 0.0000 0.0000 -4.9161 -9.4706 0.4866 -4.2100 0.0000 0.0000 -15.5451 -29.8258 5.7707 22.3512 0.0000 0.0000
 18.8301 35.6058 -23.6667 164.5228 -0.3947 178.3062 -33.4520 0.9636 2.2020 26.4940 -1.8624 -0.6552 -56.0906 -14.5684 34.7225 -65.9827 -28.7173 -3.2462 -123.1864 -0.0000 -10.2828 7.0184 18.8106 -20.8973 33.1476 -0.0000 26.2537 -26.2077 -8.3707 -35.6589 -78.6865 34.6728 0.1171 140.5421 0.0000 84.2802 5.9174 -6.4671 42.6206 32.8623 0.0000 -24.3270 -3.2340 7.2707 0.5147 -7.6708 0.0000 0.0000 -18.5096 32.6225 2.2192 23.2333 0.0000 0.0000 -4.9106 -9.4594 0.4931 -4.2077 -0.0000 -0.0000 -15.5367 -29.8367 5.7579 22.3363 0.0000 -0.0000
 18.8293 35.6057 -23.6665 164.5287 -0.4057 178.3062 -33.4443 0.9692 2.1972 26.5080 -1.8414 -0.6488 -56.0485 -14.5497 34.7385 -66.0285 -28.7004 -3.2601 -123.2030 -0.0000 -10.2658 7.0313 18.8150 -20.9284 33.1476 -0.0000 26.2537 -26.1723 -8.4050 -35.6676 -78.7206 34.6589 0.1432 140.5140 0.0000 84.2752 5.9107 -6.4661 42.5927 32.8623 0.0000 -24.3270 -3.2226 7.2572 0.5079 -7.6917 -0.0000 -0.0000 -18.4979 32.6572 2.2219 23.2108 0.0000 -0.0000 -4.9016 -9.4782 0.4922 -4.2143 -0.0000 -0.0000 -15.5353 -29.8291 5.7691 22.3798 0.0000 -0.0000
 18.8291 35.6056 -23.6656 164.5326 -0.4184 178.3020 -33.4417 0.9663 2.1946 26.5321 -1.8242 -0.6357 -56.0012 -14.5277 34.7502 -66.0631 -28.6894 -3.2657 -123.2206 -0.0000 -10.2044 7.0345 18.8080 -20.9440 33.1476 -0.0000 26.2537 -26.1658 -8.4124 -35.6814 -78.6920 34.6538 0.1609 140.5060 0.0000 84.3246 5.9297 -6.4754 42.6438 32.8623 0.0000 -24.3270 -3.2196 7.2377 0.5150 -7.6892 0.0000 0.0000 -18.4987 32.6290 2.2212 23.2420 0.0000 -0.0000 -4.9012 -9.4652 0.4946 -4.2102 0.0000 -0.0000 -15.5493 -29.8541 5.7606 22.3278 -0.0000 0.0000
 18.8282 35.6057 -23.6650 164.5392 -0.4271 178.2998 -33.4305 0.9650 2.1949 26.5441 -1.7935 -0.6327 -55.9875 -14.5043 34.7606 -66.0466 -28.6831 -3.2403 -123.2343 -0.0000 -10.1424 7.0133 18.7951 -20.8986 33.1476 -0.0000 26.2537 -26.1599 -8.4150 -35.6875 -78.6687 34.6555 0.1693 140.4983 0.0000 84.3555 5.9630 -6.4961 42.7142 32.8623 0.0000 -24.3270 -3.2150 7.2402 0.5144 -7.6928 -0.0000 -0.0000 -18.4916 32.6288 2.2116 23.2557 -0.0000 0.0000 -4.8957 -9.4493 0.4933 -4.2082 -0.0000 0.0000 -15.5568 -29.8672 5.7398 22.3553 0.0000 0.0000
 18.8274 35.6058 -23.6638 164.5442 -0.4358 178.2951 -33.4253 0.9686 2.1952 26.5637 -1.7920 -0.6167 -55.9612 -14.5026 34.7725 -66.0853 -28.6594 -3.2998 -123.2666 -0.0000 -9.9580 7.0255 18.8039 -20.9232 33.1476 -0.0000 26.2537 -26.1509 -8.4137 -35.6985 -78.6579 34.6368 0.1827 140.4805 0.0000 84.3204 5.9778 -6.5169 42.6952 32.8623 0.0000 -24.3270 -3.2085 7.2356 0.5141 -7.7071 -0.0000 0.0000 -18.4850 32.6445 2.2111 23.2591 -0.0000 0.0000 -4.8890 -9.4542 0.4971 -4.2136 0.0000 -0.0000 -15.5397 -29.8734 5.7492 22.3005 -0.0000 0.0000
 18.8273 35.6057 -23.6623 164.5493 -0.4496 178.2885 -33.4277 0.9768 2.1920 26.5773 -1.8457 -0.6082 -55.9380 -14.5031 34.7546 -66.0976 -28.6732 -3.3134 -123.2727 -0.0000 -9.8969 7.0312 18.8215 -20.9217 33.1476 -0.0000 26.2537 -26.1192 -8.4029 -35.6982 -78.6371 34.6327 0.1408 140.4633 0.0000 84.3138 5.9685 -6.5091 42.6839 32.8623 0.0000 -24.3270 -3.2081 7.2197 0.5221 -7.7024 -0.0000 0.0000 -18.4854 32.6304 2.2103 23.2338 -0.0000 -0.0000 -4.8794 -9.4474 0.5022 -4.2223 0.0000 0.0000 -15.5409 -29.8975 5.7560 22.3141 0.0000 -0.0000
 18.8256 35.6064 -23.6602 164.5569 -0.4575 178.2885 -33.4097 0.9776 2.1916 26.5959 -1.8173 -0.5931 -55.9703 -14.5128 34.7543 -66.0705 -28.6632 -3.3287 -123.2777 -0.0000 -9.8649 7.0286 18.8272 -20.9091 33.1476 -0.0000 26.2537 -26.1270 -8.4019 -35.7085 -78.6627 34.6196 0.1749 140.4576 0.0000 84.3362 5.9325 -6.4711 42.6767 32.8623 0.0000 -24.3270 -3.2048 7.2145 0.5174 -7.7042 0.0000 -0.0000 -18.4882 32.6389 2.2152 23.2426 -0.0000 0.0000 -4.8797 -9.4684 0.4987 -4.2111 -0.0000 0.0000 -15.5345 -29.8843 5.7735 22.2956 0.0000 -0.0000
 18.8250 35.6066 -23.6575 164.5586 -0.4668 178.2861 -33.4041 0.9834 2.1887 26.6011 -1.8439 -0.5857 -55.9590 -14.5118 34.7529 -66.0734 -28.6523 -3.3275 -123.2734 -0.0000 -9.8556 7.0188 18.8431 -20.8666 33.1476 -0.0000 26.2537 -26.1338 -8.3928 -35.7109 -78.6586 34.6184 0.1869 140.4485 0.0000 84.3458 5.9093 -6.4516 42.6496 32.8623 0.0000 -24.3270 -3.2066 7.2001 0.5169 -7.7088 0.0000 0.0000 -18.4826 32.6573 2.2227 23.2241 -0.0000 0.0000 -4.8748 -9.4775 0.4983 -4.2179 -0.0000 -0.0000 -15.5278 -29.8700 5.7470 22.3250 0.0000 -0.0000
 18.8232 35.6071 -23.6546 164.5666 -0.4750 178.2859 -33.3907 0.9919 2.1885 26.6064 -1.8779 -0.5881 -55.9789 -14.5280 34.7440 -66.0737 -28.6266 -3.3756 -123.2544 -0.0000 -9.8610 6.9910 18.7969 -20.8353 33.1476 -0.0000 26.2537 -26.1188 -8.3950 -35.7079 -78.7125 34.6248 0.2068 140.4372 0.0000 84.3429 5.8592 -6.4052 42.6101 32.8623 0.0000 -24.3270 -3.2060 7.1931 0.5148 -7.7011 0.0000 -0.0000 -18.4794 32.6488 2.2237 23.2408 -0.0000 0.0000 -4.8744 -9.4989 0.4958 -4.2100 -0.0000 0.0000 -15.5307 -29.8688 5.7587 22.3289 -0.0000 -0.0000
 18.8220 35.6074 -23.6515 164.5717 -0.4787 178.2881 -33.3792 0.9960 2.1836 26.6107 -1.8940 -0.5868 -55.9905 -14.5542 34.7467 -66.0513 -28.6047 -3.3690 -123.2462 -0.0000 -9.8709 6.9885 18.7830 -20.8420 33.1476 -0.0000 26.2537 -26.1282 -8.3705 -35.7013 -78.7282 34.6230 0.2164 140.4374 0.0000 84.2856 5.8548 -6.4034 42.5964 32.8623 0.0000 -24.3270 -3.2057 7.1949 0.5134 -7.6972 -0.0000 -0.0000 -18.4712 32.6260 2.2171 23.2163 0.0000 -0.0000 -4.8747 -9.4963 0.4894 -4.2088 0.0000 0.0000 -15.5276 -29.8591 5.7551 22.6216 0.0000 -0.0000
 18.8209 35.6077 -23.6482 164.5743 -0.4914 178.2875 -33.3694 1.0036 2.1786 26.6063 -1.9402 -0.5873 -55.9983 -14.5697 34.7344 -66.0323 -28.5986 -3.3581 -123.2230 -0.0000 -9.9004 6.9833 18.7932 -20.8177 33.1476 -0.0000 26.2537 -26.1295 -8.3656 -35.7023 -78.7578 34.6215 0.2236 140.4228 0.0000 84.2301 5.8459 -6.4076 42.5340 32.8623 0.0000 -24.3270 -3.2093 7.1773 0.5105 -7.6989 0.0000 0.0000 -18.4792 32.6468 2.2163 23.2347 -0.0000 0.0000 -4.8774 -9.5107 0.4871 -4.2016 -0.0000 -0.0000 -15.5253 -29.8688 5.7649 22.3549 -0.0000 -0.0000
 18.8201 35.6080 -23.6450 164.5776 -0.5024 178.2887 -33.3576 1.0062 2.1711 26.6043 -1.9591 -0.5915 -56.0071 -14.5869 34.7198 -66.0113 -28.6016 -3.3471 -123.2022 -0.0000 -9.9280 6.9757 18.7871 -20.8029 33.1476 -0.0000 26.2537 -26.1301 -8.3525 -35.6965 -78.7786 34.6212 0.2143 140.4142 0.0000 84.1945 5.8135 -6.3814 42.4908 32.8623 0.0000 -24.3270 -3.2145 7.1737 0.5096 -7.6870 -0.0000 -0.0000 -18.4725 32.6091 2.2413 23.2321 0.0000 -0.0000 -4.8810 -9.5191 0.4833 -4.1939 0.0000 0.0000 -15.5247 -29.8729 5.7401 22.3130 -0.0000 -0.0000
